<svg width="1060" height="732" viewBox="0 0 1060 732" fill="none" xmlns="http://www.w3.org/2000/svg">
<path d="M1035.33 173.142C1034.73 179.92 1035.92 186.737 1038.78 192.912L1052.03 221.526C1061.91 242.85 1061.91 267.437 1052.03 288.761L1043.4 307.404C1037.51 320.111 1035.07 334.14 1036.31 348.089L1038.08 368.052C1040.11 390.989 1032.16 413.691 1016.26 430.35L999.154 448.28C989.878 458.001 983.2 469.9 979.735 482.882L973.702 505.488C968.066 526.605 954.036 544.497 934.873 555.006L907.859 569.819C896.809 575.879 887.346 584.463 880.243 594.873L863.916 618.8C852.342 635.761 834.689 647.623 814.61 651.929L779.327 659.496C767.73 661.983 756.831 667.018 747.419 674.236L720.038 695.234C704.518 707.136 685.176 712.94 665.667 711.55L626.991 708.793C615.579 707.98 604.124 709.624 593.401 713.614L557.643 726.922C539.643 733.621 519.835 733.621 501.836 726.922L466.079 713.615C455.356 709.624 443.901 707.98 432.488 708.793L393.812 711.55C374.304 712.94 354.961 707.136 339.442 695.234L312.059 674.235C302.647 667.018 291.748 661.983 280.152 659.496L244.869 651.929C224.791 647.623 207.137 635.761 195.563 618.8L179.237 594.873C172.133 584.463 162.671 575.879 151.62 569.819L124.607 555.006C105.443 544.497 91.4124 526.605 85.7768 505.488L79.7443 482.883C76.2799 469.901 69.6015 458 60.3254 448.28L43.2149 430.35C27.3175 413.691 19.3695 390.989 21.4038 368.052L23.1742 348.09C24.4114 334.14 21.9652 320.111 16.0802 307.403L7.44724 288.762C-2.42848 267.438 -2.42854 242.849 7.44706 221.525L20.6978 192.912C23.5574 186.737 24.7461 179.92 24.1449 173.141C22.1285 150.405 40.0423 130.832 62.868 130.832H996.611C1019.44 130.832 1037.35 150.405 1035.33 173.142ZM593.401 -203.328C604.124 -199.337 615.578 -197.693 626.991 -198.507L665.668 -201.263C685.176 -202.653 704.518 -196.849 720.037 -184.948L747.42 -163.949C756.831 -156.732 767.73 -151.697 779.327 -149.21L814.61 -141.643C834.688 -137.337 852.342 -125.475 863.916 -108.513L880.243 -84.5869C887.346 -74.177 896.809 -65.5925 907.859 -59.533L958.26 -31.8948C962.487 -29.5769 965.581 -25.6306 966.824 -20.973C969.814 -9.76992 961.371 1.22268 949.776 1.22268H109.703C98.1084 1.22268 89.6648 -9.76956 92.6544 -20.9725C93.8974 -25.6304 96.992 -29.577 101.219 -31.8949L151.62 -59.533C162.671 -65.5925 172.133 -74.177 179.237 -84.5871L195.563 -108.513C207.137 -125.475 224.791 -137.337 244.869 -141.643L280.152 -149.21C291.749 -151.697 302.647 -156.731 312.059 -163.949L339.442 -184.948C354.962 -196.849 374.303 -202.653 393.811 -201.263L432.488 -198.507C443.901 -197.693 455.355 -199.337 466.079 -203.328L501.836 -216.636C519.835 -223.335 539.643 -223.335 557.643 -216.636L593.401 -203.328Z" fill="#BAD8B6"/>
<path d="M735 636C739.202 636.838 747.668 640.214 764.551 643.394C774.675 645.301 783.211 645.723 790.402 647.418C796.709 648.904 805.197 651.207 812.197 654.184C818.847 657.011 825.101 662.2 831.447 667.715C837.401 672.889 842.872 675.757 847.956 679.146C852.855 682.412 858.104 683.805 863.398 686.553C866.356 688.089 870.798 688.463 887.173 689.098C901.035 689.314 926.169 689.314 939.745 689.104C953.321 688.895 954.577 688.476 955.872 688.045" stroke="#BAD8B6" stroke-width="50" stroke-linecap="round"/>
</svg>
